<svg xmlns="http://www.w3.org/2000/svg" style="display: none;"><symbol id="telephone" viewBox="0 0 480.56 480.56"><title>telephone</title><path d="M365.354,317.9c-15.7-15.5-35.3-15.5-50.9,0c-11.9,11.8-23.8,23.6-35.5,35.6c-3.2,3.3-5.9,4-9.8,1.8 c-7.7-4.2-15.9-7.6-23.3-12.2c-34.5-21.7-63.4-49.6-89-81c-12.7-15.6-24-32.3-31.9-51.1c-1.6-3.8-1.3-6.3,1.8-9.4 c11.9-11.5,23.5-23.3,35.2-35.1c16.3-16.4,16.3-35.6-0.1-52.1c-9.3-9.4-18.6-18.6-27.9-28c-9.6-9.6-19.1-19.3-28.8-28.8 c-15.7-15.3-35.3-15.3-50.9,0.1c-12,11.8-23.5,23.9-35.7,35.5c-11.3,10.7-17,23.8-18.2,39.1c-1.9,24.9,4.2,48.4,12.8,71.3 c17.6,47.4,44.4,89.5,76.9,128.1c43.9,52.2,96.3,93.5,157.6,123.3c27.6,13.4,56.2,23.7,87.3,25.4c21.4,1.2,40-4.2,54.9-20.9 c10.2-11.4,21.7-21.8,32.5-32.7c16-16.2,16.1-35.8,0.2-51.8C403.554,355.9,384.454,336.9,365.354,317.9z" fill="#e0be9e" data-original="#000000" style="" class=""/><path d="M346.254,238.2l36.9-6.3c-5.8-33.9-21.8-64.6-46.1-89c-25.7-25.7-58.2-41.9-94-46.9l-5.2,37.1 c27.7,3.9,52.9,16.4,72.8,36.3C329.454,188.2,341.754,212,346.254,238.2z" fill="#e0be9e" data-original="#000000" style="" class=""/><path d="M403.954,77.8c-42.6-42.6-96.5-69.5-156-77.8l-5.2,37.1c51.4,7.2,98,30.5,134.8,67.2c34.9,34.9,57.8,79,66.1,127.5 l36.9-6.3C470.854,169.3,444.354,118.3,403.954,77.8z" fill="#e0be9e" data-original="#000000" style="" class=""/></symbol><symbol id="email" viewBox="0 0 512 512"><title>email</title><g xmlns="http://www.w3.org/2000/svg"> <g> <polygon points="339.392,258.624 512,367.744 512,144.896 " fill="#e0be9e" data-original="#000000" style="" class=""/> </g> </g><g xmlns="http://www.w3.org/2000/svg"> <g> <polygon points="0,144.896 0,367.744 172.608,258.624 " fill="#e0be9e" data-original="#000000" style="" class=""/> </g> </g><g xmlns="http://www.w3.org/2000/svg"> <g> <path d="M480,80H32C16.032,80,3.36,91.904,0.96,107.232L256,275.264l255.04-168.032C508.64,91.904,495.968,80,480,80z" fill="#e0be9e" data-original="#000000" style="" class=""/> </g> </g><g xmlns="http://www.w3.org/2000/svg"> <g> <path d="M310.08,277.952l-45.28,29.824c-2.688,1.76-5.728,2.624-8.8,2.624c-3.072,0-6.112-0.864-8.8-2.624l-45.28-29.856 L1.024,404.992C3.488,420.192,16.096,432,32,432h448c15.904,0,28.512-11.808,30.976-27.008L310.08,277.952z" fill="#e0be9e" data-original="#000000" style="" class=""/> </g> </g></symbol><symbol id="placeholder" viewBox="0 0 512 512"><title>placeholder</title><path xmlns="http://www.w3.org/2000/svg" style="" d="M256,0C156.698,0,76,80.7,76,180c0,33.6,9.302,66.301,27.001,94.501l140.797,230.414 c2.402,3.9,6.002,6.301,10.203,6.901c5.698,0.899,12.001-1.5,15.3-7.2l141.2-232.516C427.299,244.501,436,212.401,436,180 C436,80.7,355.302,0,256,0z M256,270c-50.398,0-90-40.8-90-90c0-49.501,40.499-90,90-90s90,40.499,90,90 C346,228.9,306.999,270,256,270z" fill="#ddd0c5" data-original="#fd003a" class=""/><path xmlns="http://www.w3.org/2000/svg" style="" d="M256,0v90c49.501,0,90,40.499,90,90c0,48.9-39.001,90-90,90v241.991 c5.119,0.119,10.383-2.335,13.3-7.375L410.5,272.1c16.799-27.599,25.5-59.699,25.5-92.1C436,80.7,355.302,0,256,0z" fill="#e0be9e" data-original="#e50027" class=""/></symbol><symbol id="right-arrow" viewBox="0 0 512.171 512.171"><title>right-arrow</title><path d="M509.035,248.212l-213.504-212.8c-3.051-3.029-7.595-3.904-11.627-2.304c-3.989,1.664-6.571,5.547-6.571,9.856v117.333 H10.667C4.779,160.298,0,165.076,0,170.964v170.667c0,5.888,4.779,10.667,10.667,10.667h266.667v116.885 c0,4.309,2.603,8.192,6.592,9.856c1.323,0.555,2.709,0.811,4.075,0.811c2.773,0,5.504-1.088,7.552-3.115l213.504-213.419 c2.005-2.005,3.115-4.715,3.115-7.552C512.171,252.927,511.04,250.218,509.035,248.212z"/></symbol><symbol id="left-arrow" viewBox="0 0 512.171 512.171"><title>left-arrow</title><path d="M501.504,160.047H234.837V42.714c0-4.309-2.603-8.192-6.592-9.856c-3.989-1.664-8.576-0.747-11.627,2.304L3.115,248.495 C1.109,250.501,0,253.21,0,256.047c0,2.837,1.131,5.547,3.115,7.552l213.504,213.419c2.048,2.048,4.779,3.115,7.552,3.115 c1.365,0,2.752-0.256,4.075-0.811c3.989-1.664,6.592-5.547,6.592-9.856V352.047h266.667c5.888,0,10.667-4.779,10.667-10.667 V170.714C512.171,164.826,507.413,160.047,501.504,160.047z"/></symbol><symbol id="menu-button-of-three-horizontal-lines" viewBox="0 0 124 124"><title>menu-button-of-three-horizontal-lines</title><path d="M112,6H12C5.4,6,0,11.4,0,18s5.4,12,12,12h100c6.6,0,12-5.4,12-12S118.6,6,112,6z"/><path d="M112,50H12C5.4,50,0,55.4,0,62c0,6.6,5.4,12,12,12h100c6.6,0,12-5.4,12-12C124,55.4,118.6,50,112,50z"/><path d="M112,94H12c-6.6,0-12,5.4-12,12s5.4,12,12,12h100c6.6,0,12-5.4,12-12S118.6,94,112,94z"/></symbol></svg>